<svg width="8998" height="4218" viewBox="0 0 8998 4218" fill="none" xmlns="http://www.w3.org/2000/svg">
<path d="M44.6875 3727C14.8958 3727 0 3708.9 0 3672.69C0 3644.27 9.16667 3604.62 27.5 3553.75C61.875 3458.88 114.354 3346.12 184.938 3215.5C208.771 3171.5 222.75 3146.75 226.875 3141.25C240.625 3123.83 247.5 3102.98 247.5 3078.69L246.812 3060.81C259.188 3038.81 267.667 3021.85 272.25 3009.94C275.458 3001.23 280.729 2992.52 288.062 2983.81C379.271 2867.4 472.083 2738.38 566.5 2596.75C660.917 2455.12 740.208 2317.17 804.375 2182.88C803.458 2182.42 802.312 2182.19 800.938 2182.19C799.562 2182.19 798.875 2180.12 798.875 2176C798.875 2163.62 805.979 2134.29 820.188 2088C846.771 2014.67 981.979 1813.92 1225.81 1485.75C1302.81 1356.5 1375.23 1231.6 1443.06 1111.06C1549.85 923.146 1625.71 795.042 1670.62 726.75C1739.83 621.792 1790.48 569.312 1822.56 569.312C1841.35 572.521 1850.75 583.75 1850.75 603C1850.75 634.625 1829.21 682.062 1786.12 745.312C1670.17 919.479 1420.15 1330.38 1036.06 1978C835.771 2315.79 664.812 2600.19 523.188 2831.19C706.979 2747.31 1020.48 2552.75 1463.69 2247.5C1810.65 2008.71 2123.23 1775.65 2401.44 1548.31C2508.23 1461.69 2605.85 1381.71 2694.31 1308.38C2873.52 1158.96 3024.77 1020.77 3148.06 893.812C3362.1 673.354 3469.12 498.729 3469.12 369.938C3469.12 299.812 3429.25 238.625 3349.5 186.375C3270.21 133.667 3102.69 107.312 2846.94 107.312C2700.73 107.312 2523.12 123.354 2314.12 155.438C2105.12 187.521 1892.23 236.333 1675.44 301.875C1458.65 367.417 1250.1 450.604 1049.81 551.438C849.521 652.271 670.312 771.667 512.188 909.625C354.062 1047.12 230.542 1203.88 141.625 1379.88C129.25 1407.83 123.062 1440.38 123.062 1477.5L124.438 1516C126.729 1564.58 138.646 1633.79 160.188 1723.62C174.854 1791.46 182.188 1832.71 182.188 1847.38C182.188 1864.79 177.833 1873.5 169.125 1873.5C163.167 1873.5 154.458 1868.92 143 1859.75C69.2083 1799.25 24.5208 1728.9 8.9375 1648.69C3.89583 1623.02 1.375 1596.9 1.375 1570.31C1.375 1513.48 12.6042 1454.35 35.0625 1392.94C82.7292 1261.4 173.938 1126.19 308.688 987.312C443.438 847.979 606.146 719.417 796.812 601.625C987.938 483.833 1194.88 388.271 1417.62 314.938C1647.25 239.771 1888.56 173.083 2141.56 114.875C2472.94 38.7917 2755.96 0.75 2990.62 0.75C3315.58 0.75 3515.88 78.8958 3591.5 235.188C3604.79 263.146 3611.44 294.083 3611.44 328C3611.44 600.708 3204.9 1049.65 2391.81 1674.81C1946.31 2017.65 1425.88 2379.73 830.5 2761.06C687.958 2852.27 610.729 2900.85 598.812 2906.81C586.896 2912.77 575.208 2919.88 563.75 2928.12C552.75 2936.83 543.583 2951.27 536.25 2971.44C561.917 2977.85 588.5 2981.06 616 2981.06C651.292 2981.06 709.271 2973.96 789.938 2959.75C842.646 2950.12 904.75 2940.73 976.25 2931.56C1047.75 2922.85 1132.77 2918.5 1231.31 2918.5C1507.23 2918.5 1839.29 2966.17 2227.5 3061.5C2241.71 3064.71 2262.56 3068.15 2290.06 3071.81C2391.81 3083.27 2442.69 3097.25 2442.69 3113.75C2442.69 3127.96 2400.06 3145.15 2314.81 3165.31C2298.77 3168.98 2279.98 3170.81 2258.44 3170.81C2220.4 3170.81 2175.48 3166 2123.69 3156.38C2071.9 3146.75 2013.92 3134.83 1949.75 3120.62C1886.04 3106.88 1816.83 3092.67 1742.12 3078C1667.88 3063.79 1589.04 3051.65 1505.62 3041.56C1422.67 3031.94 1336.27 3027.12 1246.44 3027.12C1161.19 3027.12 1073.42 3033.08 983.125 3045C838.75 3064.71 701.479 3077.77 571.312 3084.19C497.979 3087.4 443.438 3093.35 407.688 3102.06C372.396 3111.23 343.75 3132.08 321.75 3164.62C299.75 3197.62 264.688 3267.29 216.562 3373.62C196.396 3417.17 184.25 3444.44 180.125 3455.44C169.125 3485.69 159.958 3527.4 152.625 3580.56C147.583 3617.23 142.542 3642.44 137.5 3656.19C125.583 3688.73 100.833 3711.19 63.25 3723.56C56.375 3725.85 50.1875 3727 44.6875 3727Z" fill="#EEA73F"/>
<path d="M2410.38 2541.06C2413.58 2541.06 2426.88 2530.06 2450.25 2508.06C2458.04 2500.73 2466.98 2492.71 2477.06 2484C2516.48 2448.71 2555.44 2412.96 2593.94 2376.75C2602.65 2368.96 2611.81 2361.17 2621.44 2353.38C2663.6 2321.75 2684.69 2293.33 2684.69 2268.12C2684.69 2262.62 2682.4 2259.88 2677.81 2259.88C2660.4 2259.88 2621.21 2290.12 2560.25 2350.62C2516.25 2392.33 2477.52 2436.1 2444.06 2481.94C2421.15 2517.23 2409.69 2536.48 2409.69 2539.69C2409.69 2540.6 2409.92 2541.06 2410.38 2541.06ZM2253.62 2750.75C2229.79 2750.75 2208.48 2741.12 2189.69 2721.88C2177.31 2709.5 2171.12 2695.06 2171.12 2678.56C2171.12 2657.48 2180.98 2634.1 2200.69 2608.44C2316.19 2458.1 2443.15 2315.56 2581.56 2180.81C2626.02 2138.65 2668.42 2117.56 2708.75 2117.56C2733.5 2117.56 2756.42 2127.42 2777.5 2147.12C2793.54 2162.71 2806.38 2170.5 2816 2170.5C2822.88 2170.5 2831.35 2167.06 2841.44 2160.19C2851.52 2153.31 2883.6 2127.42 2937.69 2082.5C2978.02 2050.42 3009.65 2034.38 3032.56 2034.38C3052.73 2034.38 3062.81 2044.46 3062.81 2064.62C3062.81 2082.5 3054.79 2107.94 3038.75 2140.94C2995.67 2222.52 2961.52 2298.15 2936.31 2367.81L2920.5 2409.75C2911.79 2434.5 2907.44 2462 2907.44 2492.25C2907.44 2518.83 2922.79 2532.12 2953.5 2532.12C2955.79 2532.12 2966.1 2531.67 2984.44 2530.75C3002.77 2529.83 3051.81 2496.38 3131.56 2430.38C3211.77 2364.38 3267.69 2317.4 3299.31 2289.44C3352.02 2243.15 3386.17 2220 3401.75 2220C3411.38 2220 3418.71 2225.96 3423.75 2237.88C3424.67 2240.17 3425.12 2242.69 3425.12 2245.44C3425.12 2266.98 3389.83 2309.15 3319.25 2371.94L3189.31 2488.12C3157.23 2517.46 3122.17 2546.79 3084.12 2576.12C3046.08 2605 3007.35 2627 2967.94 2642.12C2945.02 2651.29 2922.1 2655.88 2899.19 2655.88C2883.15 2655.88 2867.33 2653.58 2851.75 2649C2814.62 2635.71 2791.71 2614.17 2783 2584.38C2777.96 2567.42 2775.44 2549.08 2775.44 2529.38C2775.44 2494.54 2785.98 2441.6 2807.06 2370.56C2812.1 2354.52 2816.69 2339.17 2820.81 2324.5L2813.94 2323.81C2790.1 2323.81 2758.48 2341 2719.06 2375.38C2680.1 2409.29 2635.42 2452.38 2585 2504.62C2535.96 2555.04 2486.69 2602.71 2437.19 2647.62C2387.69 2692.54 2341.4 2723.71 2298.31 2741.12C2282.27 2747.54 2267.38 2750.75 2253.62 2750.75ZM3416.19 2477.81C3439.56 2477.81 3473.48 2463.38 3517.94 2434.5C3562.4 2405.62 3608.92 2369.42 3657.5 2325.88C3706.08 2282.33 3750.08 2237.19 3789.5 2190.44C3829.38 2143.69 3857.33 2101.06 3873.38 2062.56C3859.62 2067.15 3844.04 2071.96 3826.62 2077C3729 2104.96 3648.79 2134.98 3586 2167.06C3454.46 2234.44 3388.69 2325.65 3388.69 2440.69V2448.94C3389.6 2468.19 3398.77 2477.81 3416.19 2477.81ZM2664.06 4086.56C2701.19 4086.56 2777.27 4006.12 2892.31 3845.25C2991.77 3705 3095.35 3542.98 3203.06 3359.19C3341.02 3122.69 3410 2984.73 3410 2945.31C3410 2942.56 3409.54 2940.5 3408.62 2939.12C3390.29 2947.83 3358.21 2971.44 3312.38 3009.94C3266.08 3048.9 3212.23 3098.62 3150.81 3159.12C3089.4 3219.62 3027.06 3287 2963.81 3361.25C2900.1 3435.5 2841.67 3512.5 2788.5 3592.25C2735.33 3672 2695 3749.69 2667.5 3825.31C2645.04 3887.19 2633.81 3943.1 2633.81 3993.06C2633.81 4055.4 2643.9 4086.56 2664.06 4086.56ZM2637.94 4217.19C2617.31 4217.19 2599.21 4208.71 2583.62 4191.75C2536.88 4138.12 2513.5 4073.5 2513.5 3997.88C2513.5 3942.88 2525.65 3882.38 2549.94 3816.38C2576.06 3743.96 2614.33 3668.79 2664.75 3590.88C2714.71 3513.42 2772 3436.19 2836.62 3359.19C2901.25 3282.19 2969.31 3207.94 3040.81 3136.44C3111.85 3065.4 3182.67 2999.62 3253.25 2939.12C3323.38 2878.62 3389.15 2825.92 3450.56 2781C3487.23 2752.58 3520.92 2715 3551.62 2668.25C3582.33 2621.96 3604.1 2581.17 3616.94 2545.88C3624.27 2526.17 3627.94 2511.27 3627.94 2501.19C3627.94 2490.19 3623.81 2484.69 3615.56 2484.69C3610.98 2484.69 3604.56 2486.98 3596.31 2491.56C3489.52 2555.27 3406.56 2587.12 3347.44 2587.12C3286.02 2587.12 3255.31 2552.98 3255.31 2484.69C3255.31 2445.27 3263.1 2404.48 3278.69 2362.31C3298.85 2305.94 3330.02 2250.48 3372.19 2195.94C3450.56 2094.65 3547.27 2017.88 3662.31 1965.62C3759.02 1922.08 3848.17 1900.31 3929.75 1900.31C3969.62 1900.31 4000.33 1906.04 4021.88 1917.5C4037.46 1926.21 4045.25 1936.98 4045.25 1949.81C4045.25 1969.98 4027.6 1993.35 3992.31 2019.94C3970.77 2035.52 3960 2051.1 3960 2066.69C3960 2072.65 3960.92 2079.75 3962.75 2088C3965.5 2098.08 3966.88 2108.62 3966.88 2119.62C3966.88 2171.42 3932.27 2238.79 3863.06 2321.75C3848.4 2340.08 3828 2371.02 3801.88 2414.56C3775.75 2457.65 3757.88 2492.48 3748.25 2519.06C3745.04 2527.31 3743.44 2533.96 3743.44 2539C3743.44 2542.67 3745.73 2544.5 3750.31 2544.5C3763.6 2544.5 3791.33 2531.21 3833.5 2504.62C3876.12 2477.58 3924.71 2445.5 3979.25 2408.38C4075.5 2345.58 4153.42 2302.96 4213 2280.5C4273.04 2258.04 4312.92 2246.81 4332.62 2246.81C4347.75 2246.81 4355.31 2254.83 4355.31 2270.88V2275C4318.19 2339.62 4254.25 2388.44 4163.5 2421.44C4096.58 2445.73 4023.48 2482.17 3944.19 2530.75C3865.35 2578.88 3791.79 2631.35 3723.5 2688.19C3655.21 2745.48 3606.85 2801.62 3578.44 2856.62C3553.23 2908.42 3512.9 2986.79 3457.44 3091.75C3238.81 3505.17 3050.44 3811.79 2892.31 4011.62C2784.15 4148.67 2699.35 4217.19 2637.94 4217.19ZM4221.25 2783.75C4194.21 2783.75 4171.52 2774.35 4153.19 2755.56C4134.85 2737.23 4125.69 2705.83 4125.69 2661.38C4125.69 2561.92 4192.6 2391.19 4326.44 2149.19C4458.44 1914.98 4569.58 1710.56 4659.88 1535.94C4752.92 1356.73 4851.69 1173.85 4956.19 987.312C5014.85 894.271 5068.02 802.146 5115.69 710.938C5172.52 604.604 5217.67 528.062 5251.12 481.312C5296.5 417.604 5338.67 385.75 5377.62 385.75C5410.17 387.583 5426.44 400.188 5426.44 423.562C5426.44 447.396 5408.56 486.125 5372.81 539.75C5349.44 575.5 5321.25 617.208 5288.25 664.875C5157.17 850.5 5044.19 1034.75 4949.31 1217.62C4939.69 1235.96 4914.94 1280.65 4875.06 1351.69C4820.52 1446.56 4753.83 1565.73 4675 1709.19C4393.12 2221.15 4252.19 2525.02 4252.19 2620.81C4252.19 2640.52 4258.83 2650.38 4272.12 2650.38C4301.46 2650.38 4366.77 2598.12 4468.06 2493.62C4794.4 2159.5 5007.75 1992.44 5108.12 1992.44C5142.96 1993.35 5163.58 2008.02 5170 2036.44C5172.29 2046.98 5173.44 2058.44 5173.44 2070.81C5173.44 2115.27 5154.88 2189.75 5117.75 2294.25L5060 2448.25C5032.96 2522.5 5019.44 2573.6 5019.44 2601.56C5019.44 2605.23 5019.9 2612.1 5020.81 2622.19C5022.19 2632.27 5030.9 2637.31 5046.94 2637.31C5090.94 2637.31 5197.04 2562.83 5365.25 2413.88C5399.17 2383.62 5427.35 2357.5 5449.81 2335.5C5474.56 2311.67 5497.48 2291.04 5518.56 2273.62C5546.52 2253 5569.21 2242.69 5586.62 2242.69C5602.21 2242.69 5610 2249.56 5610 2263.31C5610 2281.65 5595.33 2308.92 5566 2345.12C5489 2434.04 5365.02 2542.9 5194.06 2671.69C5166.56 2692.31 5134.71 2709.96 5098.5 2724.62C5062.29 2739.75 5027.46 2747.31 4994 2747.31C4961.92 2747.31 4934.88 2737.69 4912.88 2718.44C4889.04 2697.81 4877.12 2662.98 4877.12 2613.94C4877.12 2559.85 4897.29 2483.31 4937.62 2384.31C4992.62 2253.69 5020.12 2176 5020.12 2151.25C5020.12 2142.08 5017.38 2137.5 5011.88 2137.5C4998.58 2137.5 4972.23 2155.38 4932.81 2191.12C4893.4 2226.88 4838.62 2278.67 4768.5 2346.5C4505.42 2603.17 4350.04 2742.5 4302.38 2764.5C4273.96 2777.33 4246.92 2783.75 4221.25 2783.75ZM5431.25 2541.06C5434.46 2541.06 5447.75 2530.06 5471.12 2508.06C5478.92 2500.73 5487.85 2492.71 5497.94 2484C5537.35 2448.71 5576.31 2412.96 5614.81 2376.75C5623.52 2368.96 5632.69 2361.17 5642.31 2353.38C5684.48 2321.75 5705.56 2293.33 5705.56 2268.12C5705.56 2262.62 5703.27 2259.88 5698.69 2259.88C5681.27 2259.88 5642.08 2290.12 5581.12 2350.62C5537.12 2392.33 5498.4 2436.1 5464.94 2481.94C5442.02 2517.23 5430.56 2536.48 5430.56 2539.69C5430.56 2540.6 5430.79 2541.06 5431.25 2541.06ZM5274.5 2750.75C5250.67 2750.75 5229.35 2741.12 5210.56 2721.88C5198.19 2709.5 5192 2695.06 5192 2678.56C5192 2657.48 5201.85 2634.1 5221.56 2608.44C5337.06 2458.1 5464.02 2315.56 5602.44 2180.81C5646.9 2138.65 5689.29 2117.56 5729.62 2117.56C5754.38 2117.56 5777.29 2127.42 5798.38 2147.12C5814.42 2162.71 5827.25 2170.5 5836.88 2170.5C5843.75 2170.5 5852.23 2167.06 5862.31 2160.19C5872.4 2153.31 5904.48 2127.42 5958.56 2082.5C5998.9 2050.42 6030.52 2034.38 6053.44 2034.38C6073.6 2034.38 6083.69 2044.46 6083.69 2064.62C6083.69 2082.5 6075.67 2107.94 6059.62 2140.94C6016.54 2222.52 5982.4 2298.15 5957.19 2367.81L5941.38 2409.75C5932.67 2434.5 5928.31 2462 5928.31 2492.25C5928.31 2518.83 5943.67 2532.12 5974.38 2532.12C5976.67 2532.12 5986.98 2531.67 6005.31 2530.75C6023.65 2529.83 6072.69 2496.38 6152.44 2430.38C6232.65 2364.38 6288.56 2317.4 6320.19 2289.44C6372.9 2243.15 6407.04 2220 6422.62 2220C6432.25 2220 6439.58 2225.96 6444.62 2237.88C6445.54 2240.17 6446 2242.69 6446 2245.44C6446 2266.98 6410.71 2309.15 6340.12 2371.94L6210.19 2488.12C6178.1 2517.46 6143.04 2546.79 6105 2576.12C6066.96 2605 6028.23 2627 5988.81 2642.12C5965.9 2651.29 5942.98 2655.88 5920.06 2655.88C5904.02 2655.88 5888.21 2653.58 5872.62 2649C5835.5 2635.71 5812.58 2614.17 5803.88 2584.38C5798.83 2567.42 5796.31 2549.08 5796.31 2529.38C5796.31 2494.54 5806.85 2441.6 5827.94 2370.56C5832.98 2354.52 5837.56 2339.17 5841.69 2324.5L5834.81 2323.81C5810.98 2323.81 5779.35 2341 5739.94 2375.38C5700.98 2409.29 5656.29 2452.38 5605.88 2504.62C5556.83 2555.04 5507.56 2602.71 5458.06 2647.62C5408.56 2692.54 5362.27 2723.71 5319.19 2741.12C5303.15 2747.54 5288.25 2750.75 5274.5 2750.75ZM6302.31 2831.19C6284.44 2831.19 6268.85 2823.85 6255.56 2809.19C6234.48 2784.44 6223.94 2757.17 6223.94 2727.38C6223.94 2726.46 6224.4 2717.98 6225.31 2701.94C6225.77 2685.9 6232.88 2658.85 6246.62 2620.81C6252.58 2603.85 6270.46 2559.62 6300.25 2488.12C6322.25 2427.17 6339.21 2325.42 6351.12 2182.88C6360.29 2160.42 6372.67 2144.15 6388.25 2134.06C6403.83 2123.52 6419.42 2118.25 6435 2118.25C6453.33 2118.25 6469.38 2124.9 6483.12 2138.19C6496.88 2151.02 6503.75 2169.35 6503.75 2193.19C6502.83 2220.69 6496.65 2253.92 6485.19 2292.88C6474.19 2331.83 6461.35 2372.4 6446.69 2414.56C6432.48 2456.73 6419.88 2497.06 6408.88 2535.56C6397.88 2573.6 6391.46 2606.6 6389.62 2634.56C6417.12 2622.65 6458.6 2586.9 6514.06 2527.31C6569.52 2467.73 6619.25 2411.81 6663.25 2359.56C6707.71 2307.31 6738.19 2269.04 6754.69 2244.75C6779.44 2208.54 6805.33 2190.44 6832.38 2190.44C6837.42 2190.44 6842.23 2190.9 6846.81 2191.81C6881.65 2197.77 6965.98 2203.73 7099.81 2209.69C7156.65 2217.48 7185.06 2236.5 7185.06 2266.75C7185.06 2275 7182.08 2285.77 7176.12 2299.06C7168.79 2319.23 7150.46 2329.31 7121.12 2329.31C7102.79 2329.31 7083.31 2326.56 7062.69 2321.06C7048.02 2317.4 7024.42 2315.56 6991.88 2315.56L6946.5 2316.25C6910.75 2317.62 6885.77 2318.31 6871.56 2318.31C6863.31 2318.31 6858.96 2318.08 6858.5 2317.62C6840.62 2317.62 6819.08 2329.08 6793.88 2352C6754 2387.75 6700.83 2445.27 6634.38 2524.56C6560.12 2617.6 6500.77 2687.04 6456.31 2732.88C6392.6 2798.42 6341.27 2831.19 6302.31 2831.19ZM7019.38 2541.06C7022.58 2541.06 7035.88 2530.06 7059.25 2508.06C7067.04 2500.73 7075.98 2492.71 7086.06 2484C7125.48 2448.71 7164.44 2412.96 7202.94 2376.75C7211.65 2368.96 7220.81 2361.17 7230.44 2353.38C7272.6 2321.75 7293.69 2293.33 7293.69 2268.12C7293.69 2262.62 7291.4 2259.88 7286.81 2259.88C7269.4 2259.88 7230.21 2290.12 7169.25 2350.62C7125.25 2392.33 7086.52 2436.1 7053.06 2481.94C7030.15 2517.23 7018.69 2536.48 7018.69 2539.69C7018.69 2540.6 7018.92 2541.06 7019.38 2541.06ZM6862.62 2750.75C6838.79 2750.75 6817.48 2741.12 6798.69 2721.88C6786.31 2709.5 6780.12 2695.06 6780.12 2678.56C6780.12 2657.48 6789.98 2634.1 6809.69 2608.44C6925.19 2458.1 7052.15 2315.56 7190.56 2180.81C7235.02 2138.65 7277.42 2117.56 7317.75 2117.56C7342.5 2117.56 7365.42 2127.42 7386.5 2147.12C7402.54 2162.71 7415.38 2170.5 7425 2170.5C7431.88 2170.5 7440.35 2167.06 7450.44 2160.19C7460.52 2153.31 7492.6 2127.42 7546.69 2082.5C7587.02 2050.42 7618.65 2034.38 7641.56 2034.38C7661.73 2034.38 7671.81 2044.46 7671.81 2064.62C7671.81 2082.5 7663.79 2107.94 7647.75 2140.94C7604.67 2222.52 7570.52 2298.15 7545.31 2367.81L7529.5 2409.75C7520.79 2434.5 7516.44 2462 7516.44 2492.25C7516.44 2518.83 7531.79 2532.12 7562.5 2532.12C7564.79 2532.12 7575.1 2531.67 7593.44 2530.75C7611.77 2529.83 7660.81 2496.38 7740.56 2430.38C7820.77 2364.38 7876.69 2317.4 7908.31 2289.44C7961.02 2243.15 7995.17 2220 8010.75 2220C8020.38 2220 8027.71 2225.96 8032.75 2237.88C8033.67 2240.17 8034.12 2242.69 8034.12 2245.44C8034.12 2266.98 7998.83 2309.15 7928.25 2371.94L7798.31 2488.12C7766.23 2517.46 7731.17 2546.79 7693.12 2576.12C7655.08 2605 7616.35 2627 7576.94 2642.12C7554.02 2651.29 7531.1 2655.88 7508.19 2655.88C7492.15 2655.88 7476.33 2653.58 7460.75 2649C7423.62 2635.71 7400.71 2614.17 7392 2584.38C7386.96 2567.42 7384.44 2549.08 7384.44 2529.38C7384.44 2494.54 7394.98 2441.6 7416.06 2370.56C7421.1 2354.52 7425.69 2339.17 7429.81 2324.5L7422.94 2323.81C7399.1 2323.81 7367.48 2341 7328.06 2375.38C7289.1 2409.29 7244.42 2452.38 7194 2504.62C7144.96 2555.04 7095.69 2602.71 7046.19 2647.62C6996.69 2692.54 6950.4 2723.71 6907.31 2741.12C6891.27 2747.54 6876.38 2750.75 6862.62 2750.75ZM8498.19 2683.38C8398.27 2683.38 8347.85 2630.44 8346.94 2524.56C8346.02 2418.23 8335.94 2365.06 8316.69 2365.06C8299.27 2365.06 8278.65 2372.4 8254.81 2387.06C8231.44 2401.27 8206.46 2419.6 8179.88 2442.06C8153.75 2464.52 8126.25 2488.81 8097.38 2514.94C8068.5 2541.06 8039.85 2566.04 8011.44 2589.88C7983.02 2613.71 7956.21 2633.19 7931 2648.31C7905.79 2663.9 7883.33 2671.69 7863.62 2671.69C7836.58 2671.69 7817.1 2654.5 7805.19 2620.12C7802.44 2610.96 7801.06 2600.42 7801.06 2588.5C7801.06 2561 7808.85 2525.94 7824.44 2483.31C7842.31 2433.35 7867.52 2381.56 7900.06 2327.94C7932.15 2274.31 7965.38 2228.02 7999.75 2189.06C8034.58 2149.65 8064.83 2125.35 8090.5 2116.19C8104.71 2113.44 8116.62 2112.06 8126.25 2112.06C8151.92 2112.06 8164.75 2121.46 8164.75 2140.25C8164.75 2147.12 8162.92 2155.15 8159.25 2164.31C8151 2187.23 8124.65 2231.46 8080.19 2297C8051.31 2339.17 8023.81 2382.71 7997.69 2427.62C7972.94 2472.54 7960.56 2499.35 7960.56 2508.06C7960.56 2510.35 7961.25 2511.5 7962.62 2511.5C7968.58 2511.5 7988.06 2494.08 8021.06 2459.25C8066.9 2411.58 8116.85 2365.98 8170.94 2322.44C8225.02 2278.9 8277.27 2242.92 8327.69 2214.5C8378.56 2186.08 8420.5 2171.88 8453.5 2171.88C8494.29 2171.88 8514.69 2196.62 8514.69 2246.12C8514.69 2256.67 8513.77 2268.35 8511.94 2281.19C8504.15 2329.31 8500.25 2370.79 8500.25 2405.62C8500.25 2492.25 8524.54 2535.56 8573.12 2535.56C8624.46 2535.56 8705.35 2486.52 8815.81 2388.44C8863.48 2345.81 8903.81 2305.48 8936.81 2267.44C8946.9 2255.98 8958.12 2250.25 8970.5 2250.25C8976 2250.25 8981.5 2251.4 8987 2253.69C8994.33 2253.69 8998 2257.58 8998 2265.38C8998 2284.62 8980.58 2317.4 8945.75 2363.69C8890.75 2437.02 8821.54 2506.46 8738.12 2572C8643.25 2646.25 8563.27 2683.38 8498.19 2683.38Z" fill="black"/>
</svg>
